<?xml version="1.0" standalone="no"?>
<!DOCTYPE svg PUBLIC "-//W3C//DTD SVG 20010904//EN"
 "http://www.w3.org/TR/2001/REC-SVG-20010904/DTD/svg10.dtd">
<svg version="1.0" xmlns="http://www.w3.org/2000/svg"
 width="78.000000pt" height="78.000000pt" viewBox="0 0 78.000000 78.000000"
 preserveAspectRatio="xMidYMid meet">
<metadata>
Created by potrace 1.14, written by Peter Selinger 2001-2017
</metadata>
<g transform="translate(0.000000,78.000000) scale(0.100000,-0.100000)"
fill="#000000" stroke="none">
<path d="M196 738 c-39 -35 -196 -315 -196 -350 0 -30 140 -282 188 -339 l24
-29 198 0 c174 0 200 2 218 18 11 9 50 70 87 135 93 161 95 156 -95 264 -80
46 -148 83 -152 83 -13 0 -9 -145 4 -162 7 -8 38 -30 68 -48 30 -18 56 -34 58
-35 2 -2 -10 -27 -27 -57 l-31 -54 -62 0 -63 1 0 225 0 225 62 0 62 0 22 -40
c41 -75 68 -104 103 -110 33 -7 87 12 101 35 8 13 -110 219 -139 242 -18 15
-46 18 -213 18 -185 0 -193 -1 -217 -22z m418 -17 c20 -17 126 -192 126 -208
0 -27 -80 -31 -102 -5 -8 9 -30 43 -49 75 l-34 57 -82 0 -83 0 0 -250 0 -250
85 0 84 0 36 63 c19 35 35 69 35 75 0 6 -28 27 -62 48 -35 20 -67 43 -72 53
-12 19 -15 90 -5 96 8 6 250 -130 260 -146 12 -21 2 -46 -63 -159 -37 -64 -72
-113 -86 -119 -13 -7 -96 -11 -197 -11 -154 0 -177 2 -193 18 -10 10 -57 86
-106 170 -72 124 -86 156 -79 175 20 57 180 320 198 327 10 4 99 7 196 6 136
-1 180 -4 193 -15z"/>
<path d="M257 619 c-53 -87 -127 -220 -127 -231 0 -21 134 -248 145 -245 13 5
19 477 6 490 -6 6 -15 0 -24 -14z m1 -321 l-3 -92 -32 59 c-18 33 -41 74 -52
90 l-20 30 52 93 52 92 3 -90 c1 -50 1 -131 0 -182z"/>
</g>
</svg>
